<svg xmlns="http://www.w3.org/2000/svg" xmlns:xlink="http://www.w3.org/1999/xlink" viewBox="0,0,256,256" width="512px" height="512px"><defs><radialGradient cx="32.5" cy="31.5" r="30.516" gradientUnits="userSpaceOnUse" id="color-1"><stop offset="0" stop-color="#121212"></stop><stop offset="0.106" stop-color="#121212"></stop><stop offset="0.437" stop-color="#121212"></stop><stop offset="0.744" stop-color="#121212"></stop><stop offset="1" stop-color="#121212"></stop></radialGradient><linearGradient x1="32" y1="64.025" x2="32" y2="14.025" gradientUnits="userSpaceOnUse" id="color-2"><stop offset="0" stop-color="#155cde"></stop><stop offset="0.278" stop-color="#165aa2"></stop><stop offset="0.569" stop-color="#4e90bc"></stop><stop offset="0.82" stop-color="#4eacda"></stop><stop offset="1" stop-color="#6dd3ff"></stop></linearGradient></defs><g fill="none" fill-rule="nonzero" stroke="none" stroke-width="1" stroke-linecap="butt" stroke-linejoin="miter" stroke-miterlimit="10" stroke-dasharray="" stroke-dashoffset="0" font-family="none" font-weight="none" font-size="none" text-anchor="none" style="mix-blend-mode: normal"><g transform="scale(4,4)"><path d="M59,20h1.5c2.168,0 3.892,-1.998 3.422,-4.243c-0.342,-1.635 -1.866,-2.757 -3.537,-2.757h-7.385c-1.105,0 -2,-0.895 -2,-2c0,-1.105 0.895,-2 2,-2h3.385c1.67,0 3.195,-1.122 3.537,-2.757c0.47,-2.245 -1.254,-4.243 -3.422,-4.243h-22.494h-1.506h-24c-1.925,0 -3.5,1.575 -3.5,3.5c0,1.925 1.575,3.5 3.5,3.5h1.5c1.105,0 2,0.895 2,2c0,1.105 -0.895,2 -2,2h-5.385c-1.67,0 -3.195,1.122 -3.537,2.757c-0.47,2.245 1.254,4.243 3.422,4.243h13.5v12h-13.385c-1.67,0 -3.195,1.122 -3.537,2.757c-0.47,2.245 1.254,4.243 3.422,4.243h0.5c1.105,0 2,0.895 2,2c0,1.105 -0.895,2 -2,2h-0.5c-2.168,0 -3.892,1.998 -3.422,4.243c0.342,1.635 1.867,2.757 3.537,2.757h5.385c1.105,0 2,0.895 2,2c0,1.105 -0.895,2 -2,2h-1.385c-1.67,0 -3.195,1.122 -3.537,2.757c-0.47,2.245 1.254,4.243 3.422,4.243h22.494h1.506h23c1.925,0 3.5,-1.575 3.5,-3.5c0,-1.925 -1.575,-3.5 -3.5,-3.5h-0.5c-1.105,0 -2,-0.895 -2,-2c0,-1.105 0.895,-2 2,-2h4.385c1.67,0 3.195,-1.122 3.537,-2.757c0.47,-2.245 -1.254,-4.243 -3.422,-4.243h-12.5v-12h12.385c1.67,0 3.195,-1.122 3.537,-2.757c0.47,-2.245 -1.254,-4.243 -3.422,-4.243h-0.5c-1.105,0 -2,-0.895 -2,-2c0,-1.105 0.895,-2 2,-2z" fill="url(#color-1)"></path><path d="M57,31c0,13.805 -11.195,25 -25,25c-13.805,0 -25,-11.195 -25,-25c0,-13.805 11.195,-25 25,-25c13.805,0 25,11.195 25,25z" fill="url(#color-2)"></path><path d="M31.527,11.324c0.007,0 0.013,0.002 0.02,0.002c0.01,0 0.019,-0.002 0.028,-0.002z" fill="#ffffff"></path><path d="M31.651,11.324c0.01,0 0.019,0.002 0.028,0.002c0.007,0 0.013,-0.002 0.02,-0.002z" fill="#ffffff"></path><path d="M48.83,25.936l-0.023,-0.065c-0.469,-1.3 -1.864,-2.031 -3.198,-1.666c-2.111,0.577 -4.041,1.242 -5.822,1.943l-5.034,-12.722c-0.481,-1.257 -1.729,-2.088 -3.073,-2.099c-0.023,0 -0.043,0.007 -0.066,0.007c-0.023,0 -0.043,-0.007 -0.066,-0.007c-1.344,0.012 -2.593,0.843 -3.073,2.099l-11.88,30.023c-0.288,0.748 0.265,1.551 1.066,1.551h4.351c0.61,0 1.065,-0.392 1.269,-0.735c3.409,-4.162 8.24,-7.489 12.841,-9.997l3.823,9.997c0.169,0.443 0.593,0.735 1.067,0.735h4.553c0.801,0 1.354,-0.803 1.068,-1.551l-4.749,-12c2.114,-0.927 3.979,-1.64 5.347,-2.127c1.379,-0.491 2.093,-2.009 1.599,-3.386zM27.618,32.921l3.354,-8.772c0.225,-0.587 1.056,-0.587 1.28,0l1.778,4.651c-2.932,1.572 -5.075,3.079 -6.412,4.121z" fill="#ffffff"></path></g></g></svg>